<?xml version="1.0" encoding="UTF-8" standalone="no"?>
<!-- Created with Inkscape (http://www.inkscape.org/) -->

<svg
   xmlns:dc="http://purl.org/dc/elements/1.1/"
   xmlns:cc="http://creativecommons.org/ns#"
   xmlns:rdf="http://www.w3.org/1999/02/22-rdf-syntax-ns#"
   xmlns:svg="http://www.w3.org/2000/svg"
   xmlns="http://www.w3.org/2000/svg"
   xmlns:xlink="http://www.w3.org/1999/xlink"
   version="1.1"
   width="291.92651"
   height="100.99585"
   id="svg2">
  <defs
     id="defs4">
    <linearGradient
       id="linearGradient3773">
      <stop
         id="stop3775"
         style="stop-color:#ffffff;stop-opacity:1"
         offset="0" />
      <stop
         id="stop3777"
         style="stop-color:#ffffff;stop-opacity:0"
         offset="1" />
    </linearGradient>
    <linearGradient
       id="linearGradient3757">
      <stop
         id="stop3759"
         style="stop-color:#000000;stop-opacity:1"
         offset="0" />
      <stop
         id="stop3761"
         style="stop-color:#000000;stop-opacity:0"
         offset="1" />
    </linearGradient>
    <linearGradient
       x1="266.79565"
       y1="245.93362"
       x2="317.14285"
       y2="245.93362"
       id="linearGradient3779"
       xlink:href="#linearGradient3773"
       gradientUnits="userSpaceOnUse" />
  </defs>
  <metadata
     id="metadata7">
    <rdf:RDF>
      <cc:Work
         rdf:about="">
        <dc:format>image/svg+xml</dc:format>
        <dc:type
           rdf:resource="http://purl.org/dc/dcmitype/StillImage" />
        <dc:title></dc:title>
      </cc:Work>
    </rdf:RDF>
  </metadata>
  <g
     transform="translate(-129.58527,-189.50504)"
     id="layer1">
    <g
       id="g3969">
      <path
         d="m 155.71429,189.50504 c 0,0 35.71428,34.28571 65.71428,34.28571 30,0 117.14286,-75.71428 184.28572,0 67.14285,75.71429 -97.14286,78.57143 -167.14286,50 -70,-28.57142 -90,7.14286 -90,7.14286 0,0 -47.14286,-47.14286 7.14286,-91.42857 z"
         id="path2985"
         style="fill:#ff6600;stroke:none" />
      <path
         d="M 317.14286,240.93361 280,225.21933 c 0,0 -15.71429,7.14285 -12.85714,21.42857 2.85714,14.28571 15.71428,20 15.71428,20 l 31.42857,-5.71429 z"
         id="path3755"
         style="fill:url(#linearGradient3779);fill-opacity:1;stroke:none" />
      <path
         d="m 398.57142,246.6479 a 12.142858,11.428572 0 1 1 -24.28572,0 12.142858,11.428572 0 1 1 24.28572,0 z"
         id="path3781"
         style="fill:#000000;fill-opacity:1;stroke:none" />
      <path
         d="m 388.57142,245.93361 a 1.4285715,2.1428571 0 1 1 -2.85714,0 1.4285715,2.1428571 0 1 1 2.85714,0 z"
         transform="translate(-4,-2)"
         id="path3785"
         style="fill:#ffffff;fill-opacity:1;stroke:none" />
    </g>
  </g>
</svg>
